<?xml version="1.0" encoding="UTF-8" standalone="no"?>
<!-- Generator: Adobe Illustrator 19.1.0, SVG Export Plug-In . SVG Version: 6.00 Build 0)  -->

<svg
   xmlns:dc="http://purl.org/dc/elements/1.1/"
   xmlns:cc="http://creativecommons.org/ns#"
   xmlns:rdf="http://www.w3.org/1999/02/22-rdf-syntax-ns#"
   xmlns:svg="http://www.w3.org/2000/svg"
   xmlns="http://www.w3.org/2000/svg"
   xmlns:sodipodi="http://sodipodi.sourceforge.net/DTD/sodipodi-0.dtd"
   xmlns:inkscape="http://www.inkscape.org/namespaces/inkscape"
   version="1.1"
   id="Capa_1"
   x="0px"
   y="0px"
   viewBox="0 0 255 255"
   xml:space="preserve"
   inkscape:version="0.48.4 r9939"
   width="100%"
   height="100%"
   sodipodi:docname="calendar.svg"><metadata
     id="metadata3289"><rdf:RDF><cc:Work
         rdf:about=""><dc:format>image/svg+xml</dc:format><dc:type
           rdf:resource="http://purl.org/dc/dcmitype/StillImage" /><dc:title /></cc:Work></rdf:RDF></metadata><defs
     id="defs3287" /><sodipodi:namedview
     pagecolor="#ffffff"
     bordercolor="#666666"
     borderopacity="1"
     objecttolerance="10"
     gridtolerance="10"
     guidetolerance="10"
     inkscape:pageopacity="0"
     inkscape:pageshadow="2"
     inkscape:window-width="1920"
     inkscape:window-height="1056"
     id="namedview3285"
     showgrid="false"
     inkscape:zoom="1.4142136"
     inkscape:cx="-24.178398"
     inkscape:cy="109.58509"
     inkscape:window-x="0"
     inkscape:window-y="24"
     inkscape:window-maximized="1"
     inkscape:current-layer="Capa_1" /><g
     id="g3255"
     transform="translate(0,-257)" /><g
     id="g3257"
     transform="translate(0,-257)" /><g
     id="g3259"
     transform="translate(0,-257)" /><g
     id="g3261"
     transform="translate(0,-257)" /><g
     id="g3263"
     transform="translate(0,-257)" /><g
     id="g3265"
     transform="translate(0,-257)" /><g
     id="g3267"
     transform="translate(0,-257)" /><g
     id="g3269"
     transform="translate(0,-257)" /><g
     id="g3271"
     transform="translate(0,-257)" /><g
     id="g3273"
     transform="translate(0,-257)" /><g
     id="g3275"
     transform="translate(0,-257)" /><g
     id="g3277"
     transform="translate(0,-257)" /><g
     id="g3279"
     transform="translate(0,-257)" /><g
     id="g3281"
     transform="translate(0,-257)" /><g
     id="g3283"
     transform="translate(0,-257)" /><path
     sodipodi:type="arc"
     style="opacity:0.3;fill:none;stroke:#000000;stroke-width:5.95362711;stroke-miterlimit:4;stroke-opacity:1;stroke-dasharray:none"
     id="path3295"
     sodipodi:cx="116.61017"
     sodipodi:cy="151.28813"
     sodipodi:rx="122.0339"
     sodipodi:ry="122.0339"
     d="m 238.64407,151.28813 a 122.0339,122.0339 0 1 1 -244.0677989,0 122.0339,122.0339 0 1 1 244.0677989,0 z"
     transform="matrix(1.007789,0,0,1.007789,9.9815549,-24.966515)" /><g
     id="g3111"
     transform="matrix(2.6785712,0,0,2.6785712,388.15495,38.57865)" /><g
     id="g3113"
     transform="matrix(2.6785712,0,0,2.6785712,388.15495,38.57865)" /><g
     id="g3115"
     transform="matrix(2.6785712,0,0,2.6785712,388.15495,38.57865)" /><g
     id="g3117"
     transform="matrix(2.6785712,0,0,2.6785712,388.15495,38.57865)" /><g
     id="g3119"
     transform="matrix(2.6785712,0,0,2.6785712,388.15495,38.57865)" /><g
     id="g3121"
     transform="matrix(2.6785712,0,0,2.6785712,388.15495,38.57865)" /><g
     id="g3123"
     transform="matrix(2.6785712,0,0,2.6785712,388.15495,38.57865)" /><g
     id="g3125"
     transform="matrix(2.6785712,0,0,2.6785712,388.15495,38.57865)" /><g
     id="g3127"
     transform="matrix(2.6785712,0,0,2.6785712,388.15495,38.57865)" /><g
     id="g3129"
     transform="matrix(2.6785712,0,0,2.6785712,388.15495,38.57865)" /><g
     id="g3131"
     transform="matrix(2.6785712,0,0,2.6785712,388.15495,38.57865)" /><g
     id="g3133"
     transform="matrix(2.6785712,0,0,2.6785712,388.15495,38.57865)" /><g
     id="g3135"
     transform="matrix(2.6785712,0,0,2.6785712,388.15495,38.57865)" /><g
     id="g3137"
     transform="matrix(2.6785712,0,0,2.6785712,388.15495,38.57865)" /><g
     id="g3139"
     transform="matrix(2.6785712,0,0,2.6785712,388.15495,38.57865)" /><g
     id="g3124"
     transform="matrix(0.93206535,0,0,0.93206535,-239.25123,96.147634)"><polygon
       id="polygon3"
       points="57,5 42,5 16,5 1,5 1,18 57,18 "
       style="fill:#26b99a"
       transform="matrix(2.6785705,0,0,2.586207,315.80374,-41.36248)" /><circle
       id="circle5"
       r="2"
       cy="9"
       cx="20"
       style="fill:#38454f"
       sodipodi:cx="20"
       sodipodi:cy="9"
       sodipodi:rx="2"
       sodipodi:ry="2"
       transform="matrix(2.6785705,0,0,2.586207,315.80374,-41.36248)"
       d="m 22,9 c 0,1.104569 -0.895431,2 -2,2 -1.104569,0 -2,-0.895431 -2,-2 0,-1.1045695 0.895431,-2 2,-2 1.104569,0 2,0.8954305 2,2 z" /><circle
       id="circle7"
       r="2"
       cy="9"
       cx="26"
       style="fill:#38454f"
       sodipodi:cx="26"
       sodipodi:cy="9"
       sodipodi:rx="2"
       sodipodi:ry="2"
       transform="matrix(2.6785705,0,0,2.586207,315.80374,-41.36248)"
       d="m 28,9 c 0,1.104569 -0.895431,2 -2,2 -1.104569,0 -2,-0.895431 -2,-2 0,-1.1045695 0.895431,-2 2,-2 1.104569,0 2,0.8954305 2,2 z" /><circle
       id="circle9"
       r="2"
       cy="9"
       cx="32"
       style="fill:#38454f"
       sodipodi:cx="32"
       sodipodi:cy="9"
       sodipodi:rx="2"
       sodipodi:ry="2"
       transform="matrix(2.6785705,0,0,2.586207,315.80374,-41.36248)"
       d="m 34,9 c 0,1.104569 -0.895431,2 -2,2 -1.104569,0 -2,-0.895431 -2,-2 0,-1.1045695 0.895431,-2 2,-2 1.104569,0 2,0.8954305 2,2 z" /><circle
       id="circle11"
       r="2"
       cy="9"
       cx="38"
       style="fill:#38454f"
       sodipodi:cx="38"
       sodipodi:cy="9"
       sodipodi:rx="2"
       sodipodi:ry="2"
       transform="matrix(2.6785705,0,0,2.586207,315.80374,-41.36248)"
       d="m 40,9 c 0,1.104569 -0.895431,2 -2,2 -1.104569,0 -2,-0.895431 -2,-2 0,-1.1045695 0.895431,-2 2,-2 1.104569,0 2,0.8954305 2,2 z" /><path
       id="path13"
       d="m 417.58942,-41.36248 c -3.02679,0 -5.79107,1.011207 -8.03571,2.650862 1.43035,1.047414 2.62232,2.358621 3.52232,3.86638 1.28839,-0.848276 2.84196,-1.344828 4.51339,-1.344828 4.43035,0 8.03571,3.481035 8.03571,7.758621 0,4.277586 -3.60536,7.758621 -8.03571,7.758621 -1.48125,0 -2.67857,1.156035 -2.67857,2.586207 0,1.430173 1.19732,2.586207 2.67857,2.586207 7.38482,0 13.39285,-5.800862 13.39285,-12.931035 0,-7.130173 -6.00803,-12.931035 -13.39285,-12.931035 z"
       style="fill:#afb6bb"
       inkscape:connector-curvature="0" /><path
       id="path15"
       d="m 406.03139,-34.845238 c -1.13572,1.898276 -1.83483,4.068103 -1.83483,6.413793 h 5.35715 c 0,-2.663793 -1.39822,-5.014655 -3.52232,-6.413793 z"
       style="fill:#839594"
       inkscape:connector-curvature="0" /><path
       id="path17"
       d="m 389.95996,-34.845238 c -1.13571,1.898276 -1.83482,4.068103 -1.83482,6.413793 h 5.35714 c 0,-2.663793 -1.39821,-5.014655 -3.52232,-6.413793 z"
       style="fill:#839594"
       inkscape:connector-curvature="0" /><path
       id="path19"
       d="m 413.07603,-34.845238 c -0.9,-1.507759 -2.09197,-2.818966 -3.52232,-3.86638 -2.24465,-1.639655 -5.00893,-2.650862 -8.03572,-2.650862 -3.02678,0 -5.79107,1.011207 -8.03571,2.650862 1.43036,1.047414 2.62232,2.358621 3.52232,3.86638 1.2884,-0.848276 2.84197,-1.344828 4.51339,-1.344828 1.67143,0 3.225,0.496552 4.5134,1.344828 2.1241,1.399138 3.52232,3.75 3.52232,6.413793 0,4.277586 -3.60536,7.758621 -8.03572,7.758621 -1.48125,0 -2.67857,1.156035 -2.67857,2.586207 0,1.430173 1.19732,2.586207 2.67857,2.586207 7.38482,0 13.39286,-5.800862 13.39286,-12.931035 0,-2.34569 -0.69911,-4.515517 -1.83482,-6.413793 z"
       style="fill:#afb6bb"
       inkscape:connector-curvature="0" /><path
       id="path21"
       d="m 373.88854,-34.845238 c -1.13571,1.898276 -1.83482,4.068103 -1.83482,6.413793 h 5.35714 c 0,-2.663793 -1.39821,-5.014655 -3.52232,-6.413793 z"
       style="fill:#839594"
       inkscape:connector-curvature="0" /><path
       id="path23"
       d="m 397.0046,-34.845238 c -0.9,-1.507759 -2.09196,-2.818966 -3.52232,-3.86638 -2.24464,-1.639655 -5.00892,-2.650862 -8.03571,-2.650862 -3.02678,0 -5.79107,1.011207 -8.03571,2.650862 1.43036,1.047414 2.62232,2.358621 3.52232,3.86638 1.28839,-0.848276 2.84196,-1.344828 4.51339,-1.344828 1.67143,0 3.225,0.496552 4.51339,1.344828 2.12411,1.399138 3.52232,3.75 3.52232,6.413793 0,4.277586 -3.60535,7.758621 -8.03571,7.758621 -1.48125,0 -2.67857,1.156035 -2.67857,2.586207 0,1.430173 1.19732,2.586207 2.67857,2.586207 7.38482,0 13.39285,-5.800862 13.39285,-12.931035 0,-2.34569 -0.6991,-4.515517 -1.83482,-6.413793 z"
       style="fill:#afb6bb"
       inkscape:connector-curvature="0" /><path
       id="path25"
       d="m 380.93318,-34.845238 c -0.9,-1.507759 -2.09196,-2.818966 -3.52232,-3.86638 -2.24464,-1.639655 -5.00893,-2.650862 -8.03571,-2.650862 -7.38482,0 -13.39285,5.800862 -13.39285,12.931035 h 5.35714 c 0,-4.277586 3.60535,-7.758621 8.03571,-7.758621 1.67143,0 3.225,0.496552 4.51339,1.344828 2.12411,1.399138 3.52232,3.75 3.52232,6.413793 0,4.277586 -3.60536,7.758621 -8.03571,7.758621 -1.48125,0 -2.67857,1.156035 -2.67857,2.586207 0,1.430173 1.19732,2.586207 2.67857,2.586207 7.38482,0 13.39285,-5.800862 13.39285,-12.931035 0,-2.34569 -0.69911,-4.515517 -1.83482,-6.413793 z"
       style="fill:#afb6bb"
       inkscape:connector-curvature="0" /><rect
       id="rect27"
       height="103.44828"
       width="149.99994"
       style="fill:#edeada"
       y="5.1892385"
       x="318.48236" /><circle
       id="circle29"
       r="5"
       cy="29"
       cx="13"
       style="fill:#cec9ae"
       sodipodi:cx="13"
       sodipodi:cy="29"
       sodipodi:rx="5"
       sodipodi:ry="5"
       transform="matrix(2.6785705,0,0,2.586207,315.80374,-41.36248)"
       d="m 18,29 c 0,2.761424 -2.238576,5 -5,5 -2.761424,0 -5,-2.238576 -5,-5 0,-2.761424 2.238576,-5 5,-5 2.761424,0 5,2.238576 5,5 z" /><circle
       id="circle31"
       r="5"
       cy="29"
       cx="29"
       style="fill:#cec9ae"
       sodipodi:cx="29"
       sodipodi:cy="29"
       sodipodi:rx="5"
       sodipodi:ry="5"
       transform="matrix(2.6785705,0,0,2.586207,315.80374,-41.36248)"
       d="m 34,29 c 0,2.761424 -2.238576,5 -5,5 -2.761424,0 -5,-2.238576 -5,-5 0,-2.761424 2.238576,-5 5,-5 2.761424,0 5,2.238576 5,5 z" /><circle
       id="circle33"
       r="5"
       cy="29"
       cx="45"
       style="fill:#cec9ae"
       sodipodi:cx="45"
       sodipodi:cy="29"
       sodipodi:rx="5"
       sodipodi:ry="5"
       transform="matrix(2.6785705,0,0,2.586207,315.80374,-41.36248)"
       d="m 50,29 c 0,2.761424 -2.238576,5 -5,5 -2.761424,0 -5,-2.238576 -5,-5 0,-2.761424 2.238576,-5 5,-5 2.761424,0 5,2.238576 5,5 z" /><circle
       id="circle35"
       r="5"
       cy="45"
       cx="13"
       style="fill:#cec9ae"
       sodipodi:cx="13"
       sodipodi:cy="45"
       sodipodi:rx="5"
       sodipodi:ry="5"
       transform="matrix(2.6785705,0,0,2.586207,315.80374,-41.36248)"
       d="m 18,45 c 0,2.761424 -2.238576,5 -5,5 -2.761424,0 -5,-2.238576 -5,-5 0,-2.761424 2.238576,-5 5,-5 2.761424,0 5,2.238576 5,5 z" /><circle
       id="circle37"
       r="5"
       cy="45"
       cx="29"
       style="fill:#cec9ae"
       sodipodi:cx="29"
       sodipodi:cy="45"
       sodipodi:rx="5"
       sodipodi:ry="5"
       transform="matrix(2.6785705,0,0,2.586207,315.80374,-41.36248)"
       d="m 34,45 c 0,2.761424 -2.238576,5 -5,5 -2.761424,0 -5,-2.238576 -5,-5 0,-2.761424 2.238576,-5 5,-5 2.761424,0 5,2.238576 5,5 z" /><circle
       id="circle39"
       r="5"
       cy="45"
       cx="45"
       style="fill:#26b99a"
       sodipodi:cx="45"
       sodipodi:cy="45"
       sodipodi:rx="5"
       sodipodi:ry="5"
       transform="matrix(2.6785705,0,0,2.586207,315.80374,-41.36248)"
       d="m 50,45 c 0,2.761424 -2.238576,5 -5,5 -2.761424,0 -5,-2.238576 -5,-5 0,-2.761424 2.238576,-5 5,-5 2.761424,0 5,2.238576 5,5 z" /></g><g
     transform="translate(317.48231,50.637523)"
     id="g41" /><g
     transform="translate(317.48231,50.637523)"
     id="g43" /><g
     transform="translate(317.48231,50.637523)"
     id="g45" /><g
     transform="translate(317.48231,50.637523)"
     id="g47" /><g
     transform="translate(317.48231,50.637523)"
     id="g49" /><g
     transform="translate(317.48231,50.637523)"
     id="g51" /><g
     transform="translate(317.48231,50.637523)"
     id="g53" /><g
     transform="translate(317.48231,50.637523)"
     id="g55" /><g
     transform="translate(317.48231,50.637523)"
     id="g57" /><g
     transform="translate(317.48231,50.637523)"
     id="g59" /><g
     transform="translate(317.48231,50.637523)"
     id="g61" /><g
     transform="translate(317.48231,50.637523)"
     id="g63" /><g
     transform="translate(317.48231,50.637523)"
     id="g65" /><g
     transform="translate(317.48231,50.637523)"
     id="g67" /><g
     transform="translate(317.48231,50.637523)"
     id="g69" /></svg>