<?xml version="1.0" encoding="UTF-8" standalone="no"?>
<!-- Generator: Adobe Illustrator 19.1.0, SVG Export Plug-In . SVG Version: 6.00 Build 0)  -->

<svg
   xmlns:dc="http://purl.org/dc/elements/1.1/"
   xmlns:cc="http://creativecommons.org/ns#"
   xmlns:rdf="http://www.w3.org/1999/02/22-rdf-syntax-ns#"
   xmlns:svg="http://www.w3.org/2000/svg"
   xmlns="http://www.w3.org/2000/svg"
   xmlns:sodipodi="http://sodipodi.sourceforge.net/DTD/sodipodi-0.dtd"
   xmlns:inkscape="http://www.inkscape.org/namespaces/inkscape"
   version="1.1"
   id="Capa_1"
   x="0px"
   y="0px"
   viewBox="0 0 255 255"
   xml:space="preserve"
   inkscape:version="0.48.4 r9939"
   width="100%"
   height="100%"
   sodipodi:docname="calendar.svg"><metadata
     id="metadata3289"><rdf:RDF><cc:Work
         rdf:about=""><dc:format>image/svg+xml</dc:format><dc:type
           rdf:resource="http://purl.org/dc/dcmitype/StillImage" /><dc:title></dc:title></cc:Work></rdf:RDF></metadata><defs
     id="defs3287" /><sodipodi:namedview
     pagecolor="#ffffff"
     bordercolor="#666666"
     borderopacity="1"
     objecttolerance="10"
     gridtolerance="10"
     guidetolerance="10"
     inkscape:pageopacity="0"
     inkscape:pageshadow="2"
     inkscape:window-width="1920"
     inkscape:window-height="1056"
     id="namedview3285"
     showgrid="false"
     inkscape:zoom="1.4142136"
     inkscape:cx="93.908431"
     inkscape:cy="109.58509"
     inkscape:window-x="0"
     inkscape:window-y="24"
     inkscape:window-maximized="1"
     inkscape:current-layer="Capa_1" /><g
     id="g3255"
     transform="translate(0,-257)" /><g
     id="g3257"
     transform="translate(0,-257)" /><g
     id="g3259"
     transform="translate(0,-257)" /><g
     id="g3261"
     transform="translate(0,-257)" /><g
     id="g3263"
     transform="translate(0,-257)" /><g
     id="g3265"
     transform="translate(0,-257)" /><g
     id="g3267"
     transform="translate(0,-257)" /><g
     id="g3269"
     transform="translate(0,-257)" /><g
     id="g3271"
     transform="translate(0,-257)" /><g
     id="g3273"
     transform="translate(0,-257)" /><g
     id="g3275"
     transform="translate(0,-257)" /><g
     id="g3277"
     transform="translate(0,-257)" /><g
     id="g3279"
     transform="translate(0,-257)" /><g
     id="g3281"
     transform="translate(0,-257)" /><g
     id="g3283"
     transform="translate(0,-257)" /><path
     sodipodi:type="arc"
     style="opacity:0.3;fill:none;stroke:#000000;stroke-width:5.95362711;stroke-miterlimit:4;stroke-opacity:1;stroke-dasharray:none"
     id="path3295"
     sodipodi:cx="116.61017"
     sodipodi:cy="151.28813"
     sodipodi:rx="122.0339"
     sodipodi:ry="122.0339"
     d="m 238.64407,151.28813 a 122.0339,122.0339 0 1 1 -244.0677989,0 122.0339,122.0339 0 1 1 244.0677989,0 z"
     transform="matrix(1.007789,0,0,1.007789,9.9815549,-24.966515)" /><g
     id="g3111"
     transform="matrix(2.6785712,0,0,2.6785712,388.15495,38.57865)" /><g
     id="g3113"
     transform="matrix(2.6785712,0,0,2.6785712,388.15495,38.57865)" /><g
     id="g3115"
     transform="matrix(2.6785712,0,0,2.6785712,388.15495,38.57865)" /><g
     id="g3117"
     transform="matrix(2.6785712,0,0,2.6785712,388.15495,38.57865)" /><g
     id="g3119"
     transform="matrix(2.6785712,0,0,2.6785712,388.15495,38.57865)" /><g
     id="g3121"
     transform="matrix(2.6785712,0,0,2.6785712,388.15495,38.57865)" /><g
     id="g3123"
     transform="matrix(2.6785712,0,0,2.6785712,388.15495,38.57865)" /><g
     id="g3125"
     transform="matrix(2.6785712,0,0,2.6785712,388.15495,38.57865)" /><g
     id="g3127"
     transform="matrix(2.6785712,0,0,2.6785712,388.15495,38.57865)" /><g
     id="g3129"
     transform="matrix(2.6785712,0,0,2.6785712,388.15495,38.57865)" /><g
     id="g3131"
     transform="matrix(2.6785712,0,0,2.6785712,388.15495,38.57865)" /><g
     id="g3133"
     transform="matrix(2.6785712,0,0,2.6785712,388.15495,38.57865)" /><g
     id="g3135"
     transform="matrix(2.6785712,0,0,2.6785712,388.15495,38.57865)" /><g
     id="g3137"
     transform="matrix(2.6785712,0,0,2.6785712,388.15495,38.57865)" /><g
     id="g3139"
     transform="matrix(2.6785712,0,0,2.6785712,388.15495,38.57865)" /><g
     id="g4577"
     transform="matrix(0.35179375,0,0,0.35179375,-9.0669054,128.8372)"><rect
       id="rect3"
       height="160"
       width="168"
       style="fill:#d3d3d3"
       y="-3.8010821"
       x="140.20163" /><polyline
       id="polyline5"
       points="0,248 168,248 168,408 "
       style="fill:#bcbcbc"
       transform="translate(140.20162,-251.80108)" /><polygon
       id="polygon7"
       points="328,250.4 328,245.6 328,88 168,88 168,245.6 168,250.4 168,408 328,408 "
       style="fill:#ffcd50"
       transform="translate(140.20162,-251.80108)" /><polyline
       id="polyline9"
       points="328,408 328,250.4 328,245.6 328,88 168,88 168,245.6 168,248 "
       style="fill:#f4b831"
       transform="translate(140.20162,-251.80108)" /><rect
       id="rect11"
       height="160"
       width="168"
       style="fill:#9a8b9e"
       y="-3.8010821"
       x="468.20163" /><polyline
       id="polyline13"
       points="328,248 496,248 496,408 "
       style="fill:#86748c"
       transform="translate(140.20162,-251.80108)" /><path
       id="path15"
       d="m 375.40162,-101.40108 0,0 -21.6,9.599998 -4,-19.999998 29.6,-13.6 h 21.6 v 111.999998 h -25.6 l 0,-87.999998 0,0 z"
       style="fill:#617270"
       inkscape:connector-curvature="0" /><g
       id="g17"
       transform="translate(140.20162,-251.80108)"><path
         id="path19"
         d="M 50.4,372.8 V 360 L 61.6,349.6 C 80.8,332 90.4,322.4 90.4,312 c 0,-7.2 -4,-12.8 -14.4,-12.8 -8,0 -14.4,4 -19.2,7.2 l -5.6,-15.2 c 6.4,-4.8 16.8,-8.8 28.8,-8.8 20,0 31.2,12 31.2,28 0,15.2 -10.4,26.4 -23.2,38.4 l -8,7.2 0,0 h 33.6 v 16.8 l -63.2,0 0,0 z"
         style="fill:#ffffff"
         inkscape:connector-curvature="0" /><path
         id="path21"
         d="m 387.2,352 c 4,1.6 12,5.6 20.8,5.6 10.4,0 16,-4.8 16,-12 0,-8.8 -8.8,-12.8 -17.6,-12.8 h -8.8 v -15.2 h 8 c 7.2,0 16,-2.4 16,-10.4 0,-5.6 -4,-9.6 -12.8,-9.6 -7.2,0 -15.2,3.2 -18.4,5.6 l -4,-15.2 c 5.6,-3.2 16,-6.4 27.2,-6.4 19.2,0 29.6,9.6 29.6,22.4 0,9.6 -5.6,16.8 -16,20.8 l 0,0 c 10.4,1.6 19.2,9.6 19.2,21.6 0,16 -13.6,27.2 -36,27.2 -11.2,0 -20.8,-3.2 -26.4,-6.4 l 3.2,-15.2 z"
         style="fill:#ffffff"
         inkscape:connector-curvature="0" /></g></g></svg>