<?xml version="1.0" encoding="UTF-8" standalone="no"?>
<!-- Generator: Adobe Illustrator 19.1.0, SVG Export Plug-In . SVG Version: 6.00 Build 0)  -->

<svg
   xmlns:dc="http://purl.org/dc/elements/1.1/"
   xmlns:cc="http://creativecommons.org/ns#"
   xmlns:rdf="http://www.w3.org/1999/02/22-rdf-syntax-ns#"
   xmlns:svg="http://www.w3.org/2000/svg"
   xmlns="http://www.w3.org/2000/svg"
   xmlns:sodipodi="http://sodipodi.sourceforge.net/DTD/sodipodi-0.dtd"
   xmlns:inkscape="http://www.inkscape.org/namespaces/inkscape"
   version="1.1"
   id="Capa_1"
   x="0px"
   y="0px"
   viewBox="0 0 255 255"
   xml:space="preserve"
   inkscape:version="0.48.4 r9939"
   width="100%"
   height="100%"
   sodipodi:docname="trophy.svg"><metadata
     id="metadata3289"><rdf:RDF><cc:Work
         rdf:about=""><dc:format>image/svg+xml</dc:format><dc:type
           rdf:resource="http://purl.org/dc/dcmitype/StillImage" /><dc:title></dc:title></cc:Work></rdf:RDF></metadata><defs
     id="defs3287" /><sodipodi:namedview
     pagecolor="#ffffff"
     bordercolor="#666666"
     borderopacity="1"
     objecttolerance="10"
     gridtolerance="10"
     guidetolerance="10"
     inkscape:pageopacity="0"
     inkscape:pageshadow="2"
     inkscape:window-width="1920"
     inkscape:window-height="1056"
     id="namedview3285"
     showgrid="false"
     inkscape:zoom="1.4142136"
     inkscape:cx="93.908431"
     inkscape:cy="109.58509"
     inkscape:window-x="0"
     inkscape:window-y="24"
     inkscape:window-maximized="1"
     inkscape:current-layer="Capa_1" /><g
     id="g3255"
     transform="translate(0,-257)" /><g
     id="g3257"
     transform="translate(0,-257)" /><g
     id="g3259"
     transform="translate(0,-257)" /><g
     id="g3261"
     transform="translate(0,-257)" /><g
     id="g3263"
     transform="translate(0,-257)" /><g
     id="g3265"
     transform="translate(0,-257)" /><g
     id="g3267"
     transform="translate(0,-257)" /><g
     id="g3269"
     transform="translate(0,-257)" /><g
     id="g3271"
     transform="translate(0,-257)" /><g
     id="g3273"
     transform="translate(0,-257)" /><g
     id="g3275"
     transform="translate(0,-257)" /><g
     id="g3277"
     transform="translate(0,-257)" /><g
     id="g3279"
     transform="translate(0,-257)" /><g
     id="g3281"
     transform="translate(0,-257)" /><g
     id="g3283"
     transform="translate(0,-257)" /><path
     sodipodi:type="arc"
     style="opacity:0.3;fill:none;stroke:#000000;stroke-width:5.95362711;stroke-miterlimit:4;stroke-opacity:1;stroke-dasharray:none"
     id="path3295"
     sodipodi:cx="116.61017"
     sodipodi:cy="151.28813"
     sodipodi:rx="122.0339"
     sodipodi:ry="122.0339"
     d="m 238.64407,151.28813 a 122.0339,122.0339 0 1 1 -244.0677989,0 122.0339,122.0339 0 1 1 244.0677989,0 z"
     transform="matrix(1.007789,0,0,1.007789,9.9815549,-24.966515)" /><g
     transform="matrix(0.53515835,0,0,0.5355495,52.499855,52.444957)"
     id="g3148"><path
       inkscape:connector-curvature="0"
       style="fill:#efc75e"
       d="m 84.373,195.442 c 13.083,13.03 17.02,34.461 3.947,47.5 -13.083,13.03 -52.514,27.548 -65.596,14.518 -13.074,-13.03 1.505,-52.321 14.579,-65.351 13.081,-13.031 33.996,-9.706 47.07,3.333 z"
       id="path3150" /><path
       inkscape:connector-curvature="0"
       style="fill:#e2574c"
       d="m 205.178,166.468 c 19.698,40.84 -28.37,135.901 -50.597,109.001 -9.013,-10.904 -8.418,-28.3 -31.949,-50.702 -0.035,0.14 8.567,1.523 18.639,-7.596 23.242,-17.905 63.907,-50.554 63.907,-50.703 z"
       id="path3152" /><path
       inkscape:connector-curvature="0"
       style="fill:#e2574c"
       d="M 122.404,75.004 C 78.256,54.999 -23.998,102.753 5.143,125.216 c 11.814,9.11 30.558,8.611 54.842,32.369 -0.149,0.035 -1.68,-8.611 8.103,-18.683 19.155,-23.259 54.15,-63.898 54.316,-63.898 z"
       id="path3154" /><path
       inkscape:connector-curvature="0"
       style="fill:#cf5349"
       d="m 102.96,70.471 -1.908,-0.096 c -9.687,11.831 -33.358,40.998 -47.788,59.453 -5.916,6.423 -7.517,12.26 -7.858,15.708 2.827,1.943 5.741,4.183 8.751,6.756 0.735,-3.483 2.669,-8.34 7.508,-13.599 18.421,-23.575 52.05,-64.791 52.208,-64.783 -3.3,-1.575 -7.011,-2.651 -10.913,-3.439 z"
       id="path3156" /><path
       inkscape:connector-curvature="0"
       style="fill:#cf5349"
       d="m 205.45,167.115 c -5.758,4.848 -42.249,34.767 -63.934,51.84 -7.167,6.633 -13.529,7.876 -16.705,7.998 3.115,3.133 5.811,6.169 8.103,9.101 2.853,0.044 9.722,-0.858 17.475,-8.025 18.149,-14.299 46.572,-37.497 58.762,-47.57 -0.656,-4.829 -1.864,-9.336 -3.701,-13.344 z"
       id="path3158" /><path
       inkscape:connector-curvature="0"
       style="fill:#d7b354"
       d="m 53.412,184.232 c 1.82,8.156 7.412,17.878 16.119,26.568 8.663,8.646 18.351,14.211 26.498,16.067 1.383,-10.956 -3.15,-22.953 -11.656,-31.424 -8.462,-8.437 -20.188,-12.707 -30.961,-11.211 z"
       id="path3160" /><path
       inkscape:connector-curvature="0"
       style="fill:#ebebeb"
       d="m 278.528,1.532 c 6.581,6.222 -3.107,98.596 -66.244,161.313 -39.09,38.836 -65.019,53.87 -71.223,59.252 -17.16,7.78 -28.545,11.962 -62.551,-21.833 C 44.583,166.556 51.111,157.21 58.637,141.064 64.22,134.798 79.683,108.765 118.782,69.92 181.892,7.211 271.641,-4.576 278.528,1.532 z"
       id="path3162" /><path
       inkscape:connector-curvature="0"
       style="fill:#324d5b"
       d="m 199.604,80.316 c 13.608,13.634 13.608,35.738 0,49.381 -13.616,13.634 -35.677,13.634 -49.294,0 -13.608,-13.643 -13.608,-35.747 0,-49.381 13.617,-13.643 35.678,-13.643 49.294,0 z"
       id="path3164" /><path
       inkscape:connector-curvature="0"
       style="fill:#ccd0d2"
       d="m 187.397,92.689 c 6.861,6.817 6.861,17.869 0,24.686 -6.852,6.817 -17.983,6.817 -24.852,0 -6.852,-6.817 -6.852,-17.869 0,-24.686 6.877,-6.817 18,-6.817 24.852,0 z"
       id="path3166" /></g></svg>